<svg width="57" height="30" viewBox="0 0 57 30" fill="none" xmlns="http://www.w3.org/2000/svg">
<path d="M0.585786 13.3133C-0.195262 14.0944 -0.195262 15.3607 0.585786 16.1418L13.3137 28.8697C14.0948 29.6507 15.3611 29.6507 16.1421 28.8697C16.9232 28.0886 16.9232 26.8223 16.1421 26.0412L4.82843 14.7275L16.1421 3.41383C16.9232 2.63278 16.9232 1.36645 16.1421 0.585403C15.3611 -0.195645 14.0948 -0.195645 13.3137 0.585403L0.585786 13.3133ZM55 16.7275C56.1046 16.7275 57 15.8321 57 14.7275C57 13.623 56.1046 12.7275 55 12.7275V16.7275ZM2 14.7275V16.7275H55V14.7275V12.7275H2V14.7275Z" fill="#8C6D51"/>
</svg>
