<svg width="61" height="60" viewBox="0 0 61 60" fill="none" xmlns="http://www.w3.org/2000/svg">
<g clip-path="url(#clip0_533_416)">
<path fill-rule="evenodd" clip-rule="evenodd" d="M35.0981 8.81348C36.2953 8.8131 37.4483 9.26173 38.3261 10.0694C39.2039 10.8771 39.7416 11.9842 39.8314 13.1687L39.8432 13.5219V16.0055L48.4817 18.3032C49.6384 18.6104 50.6353 19.3402 51.2724 20.3461C51.9096 21.3521 52.1399 22.5599 51.9172 23.7273L51.8365 24.0686L45.6963 46.8101C45.3863 47.9574 44.6506 48.946 43.6368 49.5778C42.6231 50.2095 41.4062 50.4377 40.23 50.2166L39.8859 50.1389L38.4933 49.7693C37.7293 50.5462 36.6925 51.0641 35.537 51.1701L35.0981 51.1889H13.7451C12.548 51.1893 11.3949 50.7407 10.5171 49.933C9.63933 49.1253 9.10165 48.0182 9.01186 46.8337L9 46.4805V13.5219C8.99962 12.334 9.45175 11.1899 10.2658 10.3189C11.0798 9.44786 12.1955 8.91434 13.3892 8.82525L13.7451 8.81348H35.0981ZM35.0981 13.5219H13.7451V46.4805H35.0981V13.5219ZM39.8432 20.8811V45.254L41.1126 45.5906L47.2551 22.8492L39.8432 20.8811Z" fill="#8C6D51"/>
</g>
<defs>
<clipPath id="clip0_533_416">
<rect x="0.5" y="0.000976562" width="60" height="60" rx="8" fill="white"/>
</clipPath>
</defs>
</svg>
