<svg width="28" height="32" viewBox="0 0 28 32" fill="none" xmlns="http://www.w3.org/2000/svg">
<path d="M5.232 32C4.336 32 3.57333 31.6807 2.944 31.0422C2.31467 30.4037 2 29.6306 2 28.7229V3.59163H0V1.56246H8V0H20V1.56246H28V3.59163H26V28.7229C26 29.6563 25.692 30.4362 25.076 31.0625C24.46 31.6889 23.6907 32.0014 22.768 32H5.232ZM24 3.59163H4V28.7229C4 29.0868 4.11533 29.3857 4.346 29.6198C4.57667 29.8538 4.872 29.9708 5.232 29.9708H22.77C23.0767 29.9708 23.3587 29.841 23.616 29.5812C23.8733 29.3215 24.0013 29.0347 24 28.7209V3.59163ZM9.616 25.9125H11.616V7.64997H9.616V25.9125ZM16.384 25.9125H18.384V7.64997H16.384V25.9125Z" fill="#FF4A4A"/>
</svg>
