<svg width="20" height="22" viewBox="0 0 20 22" fill="none" xmlns="http://www.w3.org/2000/svg">
<path d="M19 4.97998C15.67 4.64998 12.32 4.47998 8.98 4.47998C7 4.47998 5.02 4.57998 3.04 4.77998L1 4.97998" stroke="black" stroke-opacity="0.6" stroke-width="1.5" stroke-linecap="round" stroke-linejoin="round"/>
<path d="M6.5 3.97L6.72 2.66C6.88 1.71 7 1 8.69 1H11.31C13 1 13.13 1.75 13.28 2.67L13.5 3.97" stroke="black" stroke-opacity="0.6" stroke-width="1.5" stroke-linecap="round" stroke-linejoin="round"/>
<path d="M16.8484 8.14014L16.1984 18.2101C16.0884 19.7801 15.9984 21.0001 13.2084 21.0001H6.78844C3.99844 21.0001 3.90844 19.7801 3.79844 18.2101L3.14844 8.14014" stroke="black" stroke-opacity="0.6" stroke-width="1.5" stroke-linecap="round" stroke-linejoin="round"/>
<path d="M8.32812 15.5H11.6581" stroke="black" stroke-opacity="0.6" stroke-width="1.5" stroke-linecap="round" stroke-linejoin="round"/>
<path d="M7.5 11.5H12.5" stroke="black" stroke-opacity="0.6" stroke-width="1.5" stroke-linecap="round" stroke-linejoin="round"/>
</svg>
