<svg width="16" height="15" viewBox="0 0 16 15" fill="none" xmlns="http://www.w3.org/2000/svg">
<path d="M6.14167 1.75872H1.14167C0.796489 1.75872 0.516667 2.03854 0.516667 2.38372C0.516667 2.72889 0.796489 3.00872 1.14167 3.00872H6.14167C6.48685 3.00872 6.76667 2.72889 6.76667 2.38372C6.76667 2.03854 6.48685 1.75872 6.14167 1.75872Z" fill="#E6E4D8"/>
<path fill-rule="evenodd" clip-rule="evenodd" d="M2.73333 7.91705H1.14167C0.796489 7.91705 0.516667 7.63723 0.516667 7.29205C0.516667 6.94687 0.796489 6.66705 1.14167 6.66705H2.73333C3.03736 5.81575 3.90987 5.3067 4.80057 5.46098C5.69127 5.61525 6.34175 6.38809 6.34175 7.29205C6.34175 8.19601 5.69127 8.96884 4.80057 9.12312C3.90987 9.27739 3.03736 8.76835 2.73333 7.91705ZM4.475 7.90038C4.81098 7.90038 5.08333 7.62802 5.08333 7.29205C5.08333 6.95608 4.81098 6.68372 4.475 6.68372C4.31366 6.68372 4.15893 6.74781 4.04485 6.86189C3.93076 6.97598 3.86667 7.13071 3.86667 7.29205C3.86667 7.62802 4.13903 7.90038 4.475 7.90038Z" fill="#E6E4D8"/>
<path fill-rule="evenodd" clip-rule="evenodd" d="M10.9083 2.97538C10.6237 3.64779 9.97163 4.09118 9.24166 4.10872V4.05038C8.27532 4.05408 7.4674 3.31653 7.38327 2.35384C7.29915 1.39116 7.96688 0.52465 8.91923 0.360677C9.87157 0.196704 10.7907 0.789994 11.0333 1.72538C11.0693 1.72067 11.1057 1.72067 11.1417 1.72538H14.4333C14.7785 1.72538 15.0583 2.0052 15.0583 2.35038C15.0583 2.69556 14.7785 2.97538 14.4333 2.97538H11.1C11.0364 2.98331 10.972 2.98331 10.9083 2.97538ZM9.85306 2.18952C9.83828 1.86315 9.56836 1.60673 9.24166 1.60872V1.64205C9.07429 1.64395 8.91509 1.71473 8.80156 1.83772C8.68803 1.96072 8.63019 2.12506 8.64166 2.29205C8.68195 2.61626 8.97112 2.85076 9.29666 2.8232C9.6222 2.79565 9.86784 2.51589 9.85306 2.18952Z" fill="#E6E4D8"/>
<path d="M6.14167 11.842H1.14167C0.787284 11.842 0.5 12.1293 0.5 12.4837C0.5 12.8381 0.787284 13.1254 1.14167 13.1254H6.14167C6.48684 13.1254 6.76667 12.8456 6.76667 12.5004C6.76667 12.1552 6.48684 11.8754 6.14167 11.8754V11.842Z" fill="#E6E4D8"/>
<path fill-rule="evenodd" clip-rule="evenodd" d="M11.25 11.842H14.475V11.8754C14.8202 11.8754 15.1 12.1552 15.1 12.5004C15.1 12.8456 14.8202 13.1254 14.475 13.1254H11.1417C10.7604 13.9357 9.85352 14.3566 8.98853 14.1247C8.12355 13.8928 7.54889 13.0746 7.62422 12.1822C7.69955 11.2899 8.40324 10.5796 9.29486 10.4959C10.1865 10.4123 11.01 10.9793 11.25 11.842ZM8.90707 12.5723C9.00386 12.7994 9.22823 12.9454 9.47501 12.942C9.80772 12.9375 10.075 12.6665 10.075 12.3337C10.075 12.0869 9.92585 11.8646 9.69751 11.7709C9.46916 11.6773 9.20687 11.7309 9.03356 11.9066C8.86025 12.0823 8.81028 12.3453 8.90707 12.5723Z" fill="#E6E4D8"/>
<path d="M14.475 6.66705H7.80834C7.46316 6.66705 7.18334 6.94687 7.18334 7.29205C7.18334 7.63723 7.46316 7.91705 7.80834 7.91705H14.475C14.8202 7.91705 15.1 7.63723 15.1 7.29205C15.1 6.94687 14.8202 6.66705 14.475 6.66705Z" fill="#E6E4D8"/>
</svg>
