<svg width="16" height="17" viewBox="0 0 16 17" fill="none" xmlns="http://www.w3.org/2000/svg">
<path d="M8.42686 2.35091L9.06019 1.71758C9.28966 1.47132 9.28289 1.08757 9.04488 0.849563C8.80687 0.611553 8.42312 0.604782 8.17686 0.834248L6.51019 2.50091C6.26648 2.74493 6.26648 3.14023 6.51019 3.38425L8.17686 5.05091C8.42087 5.29463 8.81618 5.29463 9.06019 5.05091C9.3039 4.8069 9.3039 4.4116 9.06019 4.16758L8.51019 3.61758C11.3163 3.96518 13.5032 6.21743 13.7681 9.0326C14.0329 11.8478 12.3044 14.4683 9.61228 15.3332C6.92019 16.198 3.98888 15.0743 2.56464 12.6316C1.14041 10.1889 1.60648 7.08441 3.68519 5.16758C3.88663 4.92806 3.87985 4.57646 3.66933 4.34488C3.4588 4.1133 3.10944 4.07314 2.85186 4.25091C0.317012 6.58575 -0.237049 10.3765 1.5235 13.3391C3.28405 16.3018 6.87841 17.6273 10.141 16.5171C13.4035 15.4068 15.4433 12.164 15.0313 8.74244C14.6193 5.32087 11.868 2.65495 8.43519 2.35091H8.42686Z" fill="#E6E4D8"/>
</svg>
