<svg width="65" height="65" viewBox="0 0 65 65" fill="none" xmlns="http://www.w3.org/2000/svg">
<rect x="0.926482" y="0.926482" width="63.148" height="63.148" rx="9.07352" fill="#8C6D51" stroke="#E6E4D8" stroke-width="1.85296"/>
<path d="M42.5791 38.3742V37.76H46.8671V38.3742H45.0693V43.4774H44.3769V38.3742H42.5791Z" fill="#E6E4D8"/>
<path d="M48.5247 43.5779C48.253 43.5779 48.0064 43.5267 47.7849 43.4243C47.5634 43.3201 47.3875 43.1703 47.2573 42.9749C47.127 42.7776 47.0618 42.5394 47.0618 42.2602C47.0618 42.0145 47.1102 41.8154 47.207 41.6628C47.3038 41.5083 47.4331 41.3873 47.5951 41.2999C47.757 41.2124 47.9356 41.1473 48.1311 41.1045C48.3283 41.0598 48.5265 41.0244 48.7257 40.9984C48.9862 40.9649 49.1975 40.9397 49.3594 40.923C49.5232 40.9044 49.6423 40.8737 49.7167 40.8309C49.793 40.7881 49.8312 40.7136 49.8312 40.6075V40.5852C49.8312 40.3098 49.7558 40.0957 49.6051 39.9431C49.4562 39.7905 49.23 39.7142 48.9267 39.7142C48.6122 39.7142 48.3656 39.7831 48.1869 39.9208C48.0082 40.0585 47.8826 40.2055 47.81 40.3619L47.1847 40.1385C47.2963 39.878 47.4452 39.6751 47.6313 39.5299C47.8193 39.3829 48.024 39.2806 48.2455 39.2229C48.4688 39.1633 48.6885 39.1335 48.9044 39.1335C49.0421 39.1335 49.2003 39.1503 49.3789 39.1838C49.5595 39.2154 49.7335 39.2815 49.901 39.382C50.0703 39.4825 50.2109 39.6342 50.3225 39.837C50.4342 40.0399 50.49 40.3116 50.49 40.6522V43.4774H49.8312V42.8967H49.7977C49.753 42.9898 49.6786 43.0893 49.5744 43.1954C49.4701 43.3015 49.3315 43.3918 49.1584 43.4662C48.9853 43.5407 48.7741 43.5779 48.5247 43.5779ZM48.6252 42.986C48.8857 42.986 49.1053 42.9349 49.284 42.8325C49.4645 42.7301 49.6004 42.598 49.6916 42.4361C49.7847 42.2742 49.8312 42.1039 49.8312 41.9252V41.3222C49.8033 41.3557 49.7419 41.3864 49.6469 41.4143C49.5539 41.4404 49.4459 41.4636 49.3231 41.4841C49.2021 41.5027 49.0839 41.5195 48.9686 41.5344C48.855 41.5474 48.7629 41.5586 48.6922 41.5679C48.521 41.5902 48.3609 41.6265 48.212 41.6768C48.065 41.7251 47.9459 41.7987 47.8547 41.8973C47.7653 41.9941 47.7207 42.1262 47.7207 42.2937C47.7207 42.5226 47.8054 42.6957 47.9747 42.813C48.1459 42.9284 48.3628 42.986 48.6252 42.986Z" fill="#E6E4D8"/>
<path d="M54.7299 40.1497L54.1381 40.3172C54.1008 40.2186 54.0459 40.1227 53.9733 40.0297C53.9026 39.9347 53.8058 39.8566 53.683 39.7952C53.5602 39.7337 53.4029 39.703 53.2112 39.703C52.9488 39.703 52.7301 39.7635 52.5552 39.8845C52.3821 40.0036 52.2955 40.1553 52.2955 40.3395C52.2955 40.5033 52.3551 40.6327 52.4742 40.7276C52.5933 40.8225 52.7794 40.9016 53.0326 40.9649L53.6691 41.1212C54.0524 41.2143 54.3381 41.3566 54.5261 41.5483C54.7141 41.7382 54.8081 41.9829 54.8081 42.2825C54.8081 42.5282 54.7373 42.7478 54.5959 42.9414C54.4563 43.1349 54.2609 43.2875 54.0096 43.3992C53.7584 43.5109 53.4662 43.5667 53.1331 43.5667C52.6957 43.5667 52.3337 43.4718 52.0471 43.282C51.7605 43.0921 51.579 42.8148 51.5027 42.45L52.128 42.2937C52.1876 42.5245 52.3002 42.6976 52.4658 42.813C52.6333 42.9284 52.852 42.986 53.1219 42.986C53.429 42.986 53.6728 42.9209 53.8533 42.7906C54.0357 42.6585 54.1269 42.5003 54.1269 42.316C54.1269 42.1672 54.0748 42.0425 53.9706 41.942C53.8663 41.8396 53.7063 41.7633 53.4904 41.713L52.7757 41.5455C52.383 41.4525 52.0945 41.3082 51.9103 41.1128C51.7279 40.9156 51.6367 40.669 51.6367 40.373C51.6367 40.1311 51.7046 39.9171 51.8405 39.7309C51.9782 39.5448 52.1653 39.3987 52.4016 39.2927C52.6399 39.1866 52.9097 39.1335 53.2112 39.1335C53.6356 39.1335 53.9687 39.2266 54.2106 39.4127C54.4544 39.5988 54.6275 39.8445 54.7299 40.1497Z" fill="#E6E4D8"/>
<path d="M56.414 41.914L56.4028 41.0989H56.5368L58.4128 39.1894H59.228L57.2291 41.2105H57.1733L56.414 41.914ZM55.7998 43.4774V37.76H56.4586V43.4774H55.7998ZM58.5245 43.4774L56.8495 41.3557L57.3185 40.8979L59.362 43.4774H58.5245Z" fill="#E6E4D8"/>
<path d="M44.4396 49.8656V45.5776H45.0984V49.8656H44.4396ZM44.7746 44.8629C44.6462 44.8629 44.5354 44.8192 44.4424 44.7317C44.3512 44.6442 44.3056 44.5391 44.3056 44.4162C44.3056 44.2934 44.3512 44.1883 44.4424 44.1008C44.5354 44.0133 44.6462 43.9696 44.7746 43.9696C44.903 43.9696 45.0128 44.0133 45.104 44.1008C45.1971 44.1883 45.2436 44.2934 45.2436 44.4162C45.2436 44.5391 45.1971 44.6442 45.104 44.7317C45.0128 44.8192 44.903 44.8629 44.7746 44.8629Z" fill="#E6E4D8"/>
<path d="M49.8115 45.5776L48.2258 49.8656H47.5558L45.9701 45.5776H46.6848L47.8685 48.9946H47.9131L49.0968 45.5776H49.8115Z" fill="#E6E4D8"/>
<path d="M52.3254 49.9549C51.9122 49.9549 51.5558 49.8637 51.2562 49.6814C50.9584 49.4971 50.7285 49.2403 50.5666 48.9109C50.4066 48.5796 50.3265 48.1943 50.3265 47.7551C50.3265 47.3159 50.4066 46.9288 50.5666 46.5938C50.7285 46.2569 50.9537 45.9945 51.2422 45.8065C51.5326 45.6167 51.8713 45.5218 52.2584 45.5218C52.4817 45.5218 52.7023 45.559 52.92 45.6334C53.1378 45.7079 53.336 45.8288 53.5146 45.9963C53.6933 46.162 53.8357 46.3816 53.9418 46.6552C54.0479 46.9288 54.1009 47.2656 54.1009 47.6658V47.9449H50.7955V47.3754H53.4309C53.4309 47.1335 53.3825 46.9176 53.2857 46.7278C53.1908 46.5379 53.0549 46.3881 52.8781 46.2783C52.7032 46.1685 52.4966 46.1136 52.2584 46.1136C51.996 46.1136 51.7689 46.1787 51.5772 46.309C51.3874 46.4374 51.2413 46.6049 51.1389 46.8115C51.0366 47.0181 50.9854 47.2396 50.9854 47.4759V47.8556C50.9854 48.1794 51.0412 48.4539 51.1529 48.6791C51.2664 48.9025 51.4237 49.0728 51.6247 49.19C51.8257 49.3054 52.0592 49.3631 52.3254 49.3631C52.4985 49.3631 52.6548 49.3389 52.7944 49.2905C52.9358 49.2403 53.0577 49.1658 53.1601 49.0672C53.2625 48.9667 53.3416 48.842 53.3974 48.6931L54.0339 48.8718C53.9669 49.0877 53.8543 49.2775 53.6961 49.4413C53.5379 49.6032 53.3425 49.7297 53.1099 49.8209C52.8772 49.9103 52.6157 49.9549 52.3254 49.9549Z" fill="#E6E4D8"/>
<path d="M55.1031 49.8656V45.5776H55.7396V46.2253H55.7843C55.8624 46.0131 56.0039 45.8409 56.2086 45.7088C56.4133 45.5767 56.6441 45.5106 56.901 45.5106C56.9493 45.5106 57.0098 45.5115 57.0824 45.5134C57.155 45.5152 57.2099 45.518 57.2471 45.5218V46.1917C57.2248 46.1862 57.1736 46.1778 57.0936 46.1666C57.0154 46.1536 56.9326 46.1471 56.8451 46.1471C56.6367 46.1471 56.4506 46.1908 56.2868 46.2783C56.1249 46.3639 55.9965 46.483 55.9015 46.6356C55.8085 46.7864 55.762 46.9585 55.762 47.1521V49.8656H55.1031Z" fill="#E6E4D8"/>
<path d="M5.49805 17.1655V13.2422H29.3357L32.7816 13.6516L32.9042 17.1655H21.4136V49.7648H16.9887V17.1655H5.49805Z" fill="#E6E4D8"/>
<path d="M16.9887 49.7648L16.9887 13.2422H29.3357C32.1905 13.2422 34.5339 13.7296 36.3657 14.7045C38.1975 15.6675 39.5536 16.9931 40.4338 18.6814C41.314 20.3696 41.7542 22.2896 41.7542 24.4415C41.7542 26.5934 41.314 28.5016 40.4338 30.166C39.5536 31.8305 38.2035 33.1382 36.3835 34.0893C34.5636 35.0286 32.2381 35.4982 29.4071 35.4982H19.4153V31.5035H29.2644C31.2151 31.5035 32.7853 31.2182 33.9748 30.6475C35.1762 30.0769 36.0445 29.2684 36.5798 28.2222C37.127 27.1641 37.4006 25.9038 37.4006 24.4415C37.4006 22.9792 37.127 21.7011 36.5798 20.6074C36.0326 19.5136 35.1584 18.6695 33.957 18.075C32.7556 17.4687 31.1676 17.1655 29.193 17.1655H21.4136V49.7648H16.9887ZM34.1889 33.3582L43.1816 49.7648H38.0429L29.193 33.3582H34.1889Z" fill="#E6E4D8"/>
</svg>
