<svg width="57" height="57" viewBox="0 0 57 57" fill="none" xmlns="http://www.w3.org/2000/svg">
<rect x="1.05539" y="0.926482" width="54.5875" height="54.5875" rx="9.07352" fill="#8C6D51" stroke="#E6E4D8" stroke-width="1.85296"/>
<path d="M37.1018 33.3202V32.7869H40.8251V33.3202H39.264V37.7513H38.6629V33.3202H37.1018Z" fill="#E6E4D8"/>
<path d="M42.2644 37.8386C42.0284 37.8386 41.8143 37.7941 41.622 37.7052C41.4297 37.6148 41.277 37.4847 41.1639 37.315C41.0507 37.1437 40.9942 36.9368 40.9942 36.6944C40.9942 36.4811 41.0362 36.3082 41.1202 36.1757C41.2043 36.0416 41.3166 35.9365 41.4572 35.8606C41.5978 35.7846 41.7529 35.7281 41.9226 35.6909C42.0939 35.6521 42.266 35.6214 42.4389 35.5988C42.6651 35.5697 42.8486 35.5479 42.9892 35.5333C43.1314 35.5172 43.2348 35.4905 43.2994 35.4533C43.3657 35.4162 43.3988 35.3515 43.3988 35.2594V35.24C43.3988 35.0008 43.3334 34.815 43.2025 34.6825C43.0732 34.55 42.8768 34.4837 42.6134 34.4837C42.3403 34.4837 42.1262 34.5435 41.9711 34.6631C41.8159 34.7827 41.7068 34.9104 41.6438 35.0461L41.1008 34.8522C41.1978 34.6259 41.3271 34.4498 41.4887 34.3237C41.6519 34.1961 41.8297 34.1072 42.022 34.0571C42.2159 34.0054 42.4066 33.9795 42.594 33.9795C42.7136 33.9795 42.851 33.9941 43.0061 34.0232C43.1629 34.0506 43.314 34.108 43.4594 34.1953C43.6065 34.2825 43.7285 34.4142 43.8254 34.5904C43.9224 34.7665 43.9709 35.0025 43.9709 35.2982V37.7513H43.3988V37.2471H43.3697C43.3309 37.3279 43.2663 37.4144 43.1758 37.5065C43.0853 37.5986 42.9649 37.677 42.8146 37.7416C42.6643 37.8062 42.4809 37.8386 42.2644 37.8386ZM42.3516 37.3247C42.5779 37.3247 42.7686 37.2802 42.9237 37.1914C43.0805 37.1025 43.1984 36.9877 43.2776 36.8471C43.3584 36.7066 43.3988 36.5587 43.3988 36.4035V35.88C43.3746 35.909 43.3212 35.9357 43.2388 35.96C43.158 35.9826 43.0643 36.0028 42.9576 36.0206C42.8526 36.0367 42.75 36.0513 42.6498 36.0642C42.5512 36.0755 42.4712 36.0852 42.4098 36.0933C42.2611 36.1127 42.1222 36.1442 41.9929 36.1878C41.8652 36.2298 41.7618 36.2937 41.6826 36.3793C41.605 36.4633 41.5663 36.5781 41.5663 36.7235C41.5663 36.9223 41.6398 37.0726 41.7868 37.1744C41.9355 37.2746 42.1238 37.3247 42.3516 37.3247Z" fill="#E6E4D8"/>
<path d="M47.6524 34.8619L47.1385 35.0073C47.1062 34.9217 47.0585 34.8384 46.9955 34.7576C46.9341 34.6752 46.85 34.6073 46.7434 34.554C46.6367 34.5007 46.5001 34.474 46.3337 34.474C46.1058 34.474 45.916 34.5265 45.7641 34.6316C45.6138 34.735 45.5386 34.8667 45.5386 35.0267C45.5386 35.1689 45.5903 35.2812 45.6938 35.3636C45.7972 35.4461 45.9588 35.5147 46.1786 35.5697L46.7312 35.7054C47.0641 35.7862 47.3122 35.9099 47.4754 36.0763C47.6386 36.2411 47.7202 36.4536 47.7202 36.7138C47.7202 36.9271 47.6588 37.1178 47.536 37.2859C47.4148 37.454 47.2451 37.5865 47.027 37.6834C46.8088 37.7804 46.5551 37.8289 46.2658 37.8289C45.8861 37.8289 45.5717 37.7465 45.3229 37.5816C45.074 37.4168 44.9165 37.176 44.8502 36.8593L45.3932 36.7235C45.4449 36.9239 45.5427 37.0742 45.6865 37.1744C45.8319 37.2746 46.0218 37.3247 46.2561 37.3247C46.5228 37.3247 46.7345 37.2681 46.8912 37.155C47.0496 37.0403 47.1288 36.9029 47.1288 36.7429C47.1288 36.6136 47.0835 36.5054 46.993 36.4181C46.9025 36.3292 46.7636 36.263 46.5761 36.2193L45.9556 36.0739C45.6146 35.9931 45.3641 35.8678 45.2041 35.6982C45.0457 35.5269 44.9665 35.3127 44.9665 35.0558C44.9665 34.8457 45.0255 34.6599 45.1435 34.4983C45.2631 34.3367 45.4255 34.2098 45.6307 34.1177C45.8376 34.0256 46.0719 33.9795 46.3337 33.9795C46.7022 33.9795 46.9914 34.0603 47.2015 34.2219C47.4132 34.3835 47.5635 34.5968 47.6524 34.8619Z" fill="#E6E4D8"/>
<path d="M49.1147 36.3939L49.105 35.686H49.2213L50.8503 34.028H51.5581L49.8225 35.783H49.774L49.1147 36.3939ZM48.5814 37.7513V32.7869H49.1534V37.7513H48.5814ZM50.9472 37.7513L49.4928 35.909L49.9 35.5115L51.6744 37.7513H50.9472Z" fill="#E6E4D8"/>
<path d="M38.7173 43.2982V39.5749H39.2893V43.2982H38.7173ZM39.0082 38.9544C38.8967 38.9544 38.8005 38.9164 38.7197 38.8404C38.6405 38.7645 38.6009 38.6732 38.6009 38.5665C38.6009 38.4599 38.6405 38.3686 38.7197 38.2926C38.8005 38.2167 38.8967 38.1787 39.0082 38.1787C39.1197 38.1787 39.215 38.2167 39.2942 38.2926C39.375 38.3686 39.4154 38.4599 39.4154 38.5665C39.4154 38.6732 39.375 38.7645 39.2942 38.8404C39.215 38.9164 39.1197 38.9544 39.0082 38.9544Z" fill="#E6E4D8"/>
<path d="M43.3817 39.5749L42.0049 43.2982H41.4231L40.0462 39.5749H40.6668L41.6946 42.5419H41.7334L42.7612 39.5749H43.3817Z" fill="#E6E4D8"/>
<path d="M45.5645 43.3758C45.2058 43.3758 44.8963 43.2966 44.6361 43.1382C44.3776 42.9782 44.178 42.7552 44.0374 42.4692C43.8984 42.1815 43.8289 41.847 43.8289 41.4656C43.8289 41.0843 43.8984 40.7481 44.0374 40.4573C44.178 40.1648 44.3735 39.9369 44.624 39.7737C44.8761 39.6088 45.1702 39.5264 45.5064 39.5264C45.7003 39.5264 45.8918 39.5587 46.0809 39.6234C46.2699 39.688 46.442 39.7931 46.5972 39.9385C46.7523 40.0823 46.8759 40.273 46.968 40.5106C47.0602 40.7481 47.1062 41.0406 47.1062 41.3881V41.6305H44.2362V41.136H46.5244C46.5244 40.9259 46.4824 40.7384 46.3984 40.5736C46.316 40.4088 46.198 40.2787 46.0445 40.1833C45.8926 40.088 45.7132 40.0403 45.5064 40.0403C45.2785 40.0403 45.0813 40.0969 44.9149 40.21C44.7501 40.3215 44.6232 40.4669 44.5343 40.6463C44.4454 40.8257 44.401 41.018 44.401 41.2232V41.5529C44.401 41.8341 44.4495 42.0725 44.5464 42.268C44.645 42.4619 44.7816 42.6098 44.9561 42.7116C45.1306 42.8118 45.3334 42.8619 45.5645 42.8619C45.7148 42.8619 45.8506 42.8409 45.9718 42.7989C46.0946 42.7552 46.2004 42.6906 46.2893 42.6049C46.3782 42.5177 46.4469 42.4094 46.4954 42.2801L47.048 42.4353C46.9899 42.6227 46.8921 42.7875 46.7547 42.9298C46.6174 43.0703 46.4477 43.1802 46.2457 43.2594C46.0437 43.337 45.8166 43.3758 45.5645 43.3758Z" fill="#E6E4D8"/>
<path d="M47.9764 43.2982V39.5749H48.5291V40.1373H48.5679C48.6358 39.9531 48.7586 39.8036 48.9363 39.6888C49.1141 39.5741 49.3145 39.5167 49.5375 39.5167C49.5795 39.5167 49.632 39.5175 49.6951 39.5192C49.7581 39.5208 49.8058 39.5232 49.8381 39.5264V40.1082C49.8187 40.1033 49.7743 40.0961 49.7048 40.0864C49.6369 40.0751 49.565 40.0694 49.489 40.0694C49.308 40.0694 49.1464 40.1074 49.0042 40.1833C48.8636 40.2577 48.7521 40.3611 48.6697 40.4936C48.5889 40.6245 48.5485 40.774 48.5485 40.9421V43.2982H47.9764Z" fill="#E6E4D8"/>
<path d="M4.9043 14.9047V11.498H25.6026L28.5946 11.8536L28.7011 14.9047H18.7238V43.2107H14.8816V14.9047H4.9043Z" fill="#E6E4D8"/>
<path d="M14.8816 43.2107L14.8816 11.498H25.6026C28.0814 11.498 30.1161 11.9213 31.7067 12.7678C33.2973 13.604 34.4748 14.755 35.2391 16.2209C36.0034 17.6868 36.3855 19.354 36.3855 21.2224C36.3855 23.0909 36.0034 24.7478 35.2391 26.193C34.4748 27.6383 33.3025 28.7738 31.7222 29.5997C30.142 30.4152 28.1227 30.823 25.6646 30.823H16.9886V27.3544H25.5406C27.2345 27.3544 28.5978 27.1066 29.6307 26.6111C30.6739 26.1156 31.4279 25.4136 31.8926 24.5052C32.3677 23.5864 32.6053 22.4922 32.6053 21.2224C32.6053 19.9527 32.3677 18.843 31.8926 17.8932C31.4175 16.9435 30.6584 16.2106 29.6152 15.6944C28.572 15.1679 27.1932 14.9047 25.4786 14.9047H18.7238V43.2107H14.8816ZM29.8166 28.9648L37.6249 43.2107H33.163L25.4786 28.9648H29.8166Z" fill="#E6E4D8"/>
</svg>
