<svg width="61" height="60" viewBox="0 0 61 60" fill="none" xmlns="http://www.w3.org/2000/svg">
<path fill-rule="evenodd" clip-rule="evenodd" d="M33.7689 24.2229H46.5281C49.7352 24.2229 52.1347 27.8804 51.3503 31.6998L48.5354 47.1861C48.282 49.7413 46.2612 51.759 43.7132 52.001H16.5336C13.9497 51.8012 11.8795 49.773 11.6191 47.1861L8.61965 31.6535C7.92746 27.8341 10.327 24.1766 13.5341 24.1766H27.3777L17.295 12.1163C16.8822 11.3107 17.0942 10.3247 17.8014 9.7616C18.5086 9.19849 19.5139 9.21518 20.2021 9.80145L30.6771 22.1858L39.9062 9.80145C40.2053 9.3724 40.6695 9.08834 41.1866 9.01799C41.7038 8.94764 42.2266 9.09742 42.6288 9.43108C43.4529 10.0701 43.6169 11.2527 42.998 12.0931L33.7689 24.2229ZM44.913 46.5148L47.7279 31.0285C47.9458 30.0846 47.7345 29.0923 47.151 28.3202C47.0031 28.1119 46.7792 27.9705 46.5281 27.9266H13.6264C13.3753 27.9705 13.1514 28.1119 13.0035 28.3202C12.42 29.0923 12.2087 30.0846 12.4266 31.0285L15.2415 46.5148C15.4261 47.6028 16.0721 48.2278 16.4413 48.2278H43.7132C44.0824 48.2278 44.7284 47.6028 44.913 46.5148Z" fill="#8C6D51"/>
<path d="M30.7694 31.6072C29.7245 31.6072 28.8775 32.4571 28.8775 33.5054V40.4499C28.8901 41.4892 29.7335 42.325 30.7694 42.3249C31.8143 42.3249 32.6614 41.4751 32.6614 40.4268V33.4823C32.6488 32.443 31.8054 31.6072 30.7694 31.6072Z" fill="#8C6D51"/>
<path d="M21.1943 32.9499C20.9361 32.2758 20.3191 31.8071 19.6024 31.7407C18.8857 31.6742 18.1935 32.0214 17.8166 32.6365C17.4396 33.2516 17.4431 34.028 17.8256 34.6397L21.6096 42.2092C21.9224 42.8545 22.5787 43.2604 23.2939 43.2509C23.5817 43.2585 23.867 43.1949 24.1245 43.0657C24.5745 42.8419 24.9174 42.4478 25.0776 41.9701C25.2377 41.4925 25.2019 40.9705 24.9782 40.5194L21.1943 32.9499Z" fill="#8C6D51"/>
<path d="M43.021 31.9776C42.5724 31.7466 42.0498 31.7073 41.5719 31.8686C41.094 32.0299 40.7013 32.3781 40.483 32.8341L36.6991 40.4036C36.4754 40.8548 36.4396 41.3767 36.5997 41.8544C36.7599 42.332 37.1028 42.7262 37.5528 42.95C37.8109 43.0774 38.0958 43.1409 38.3834 43.1351C39.0986 43.1446 39.7549 42.7388 40.0677 42.0935L43.9209 34.5239C44.1415 34.0671 44.1705 33.5406 44.0014 33.0621C43.8323 32.5836 43.4792 32.193 43.021 31.9776Z" fill="#8C6D51"/>
</svg>
