<svg width="61" height="60" viewBox="0 0 61 60" fill="none" xmlns="http://www.w3.org/2000/svg">
<g clip-path="url(#clip0_534_161)">
<path fill-rule="evenodd" clip-rule="evenodd" d="M13.875 9.00098H21.2567C22.6864 9.00096 24.0571 9.57053 25.0658 10.5837C26.0745 11.5969 26.638 12.9702 26.6317 14.3999V21.7576C26.6317 24.7262 24.2252 27.1326 21.2567 27.1326H13.875C10.9065 27.1326 8.50005 24.7262 8.50005 21.7576V14.3999C8.4937 12.9702 9.05718 11.5969 10.0659 10.5837C11.0746 9.57053 12.4454 9.00096 13.875 9.00098ZM21.2567 23.5254C22.2408 23.5126 23.0355 22.7179 23.0483 21.7338V14.3999C23.0483 13.4104 22.2462 12.6082 21.2567 12.6082H13.875C12.8855 12.6082 12.0834 13.4104 12.0834 14.3999V21.7338C12.0962 22.7179 12.8909 23.5126 13.875 23.5254H21.2567Z" fill="#8C6D51"/>
<path fill-rule="evenodd" clip-rule="evenodd" d="M38.7433 9.00098H46.125C47.5546 9.00096 48.9254 9.57053 49.9341 10.5837C50.9428 11.5969 51.5063 12.9702 51.4999 14.3999V21.7576C51.4999 24.7262 49.0935 27.1326 46.125 27.1326H38.7433C35.7748 27.1326 33.3683 24.7262 33.3683 21.7576V14.376C33.3683 11.4074 35.7748 9.00098 38.7433 9.00098ZM46.125 23.5254C47.1091 23.5126 47.9038 22.7179 47.9166 21.7338V14.3999C47.9166 13.4104 47.1145 12.6082 46.125 12.6082H38.7433C37.7538 12.6082 36.9517 13.4104 36.9517 14.3999V21.7338C36.9645 22.7179 37.7592 23.5126 38.7433 23.5254H46.125Z" fill="#8C6D51"/>
<path fill-rule="evenodd" clip-rule="evenodd" d="M13.875 33.8693H21.2567C24.2252 33.8693 26.6317 36.2758 26.6317 39.2443V46.626C26.6317 49.5945 24.2252 52.001 21.2567 52.001H13.875C12.4454 52.001 11.0746 51.4314 10.0659 50.4182C9.05718 49.4051 8.4937 48.0318 8.50005 46.6021V39.2443C8.50005 36.2758 10.9065 33.8693 13.875 33.8693ZM21.2567 48.3938C22.2462 48.3938 23.0483 47.5916 23.0483 46.6021V39.2443C23.0355 38.2602 22.2408 37.4655 21.2567 37.4526H13.875C12.8909 37.4655 12.0962 38.2602 12.0834 39.2443V46.6021C12.0834 47.5916 12.8855 48.3938 13.875 48.3938H21.2567Z" fill="#8C6D51"/>
<path fill-rule="evenodd" clip-rule="evenodd" d="M38.7433 33.8693H46.1249C49.0934 33.8693 51.4999 36.2758 51.4999 39.2443V46.6021C51.5062 48.0318 50.9428 49.4051 49.9341 50.4182C48.9254 51.4314 47.5546 52.001 46.1249 52.001H38.7433C37.3136 52.001 35.9428 51.4314 34.9341 50.4182C33.9254 49.4051 33.3619 48.0318 33.3683 46.6021V39.2443C33.3683 36.2758 35.7748 33.8693 38.7433 33.8693ZM46.1249 48.3938C47.1144 48.3938 47.9166 47.5916 47.9166 46.6021V39.2443C47.9037 38.2602 47.109 37.4655 46.1249 37.4526H38.7433C37.7591 37.4655 36.9645 38.2602 36.9516 39.2443V46.6021C36.9516 47.5916 37.7538 48.3938 38.7433 48.3938H46.1249Z" fill="#8C6D51"/>
</g>
<defs>
<clipPath id="clip0_534_161">
<rect x="0.5" y="0.000976562" width="60" height="60" rx="8" fill="white"/>
</clipPath>
</defs>
</svg>
