<svg width="61" height="60" viewBox="0 0 61 60" fill="none" xmlns="http://www.w3.org/2000/svg">
<path d="M8.5 35.1627C8.5 32.6044 10.5875 30.5304 13.1627 30.5304H20.4157C22.9908 30.5304 25.0783 32.6044 25.0783 35.1627V42.3686C25.0783 44.927 22.9908 47.001 20.4157 47.001H13.1627C10.5875 47.001 8.5 44.927 8.5 42.3686V35.1627Z" fill="#8C6D51"/>
<path d="M33.3675 33.1039C32.5091 33.1039 31.8133 33.7952 31.8133 34.648C31.8133 35.5008 32.5091 36.1922 33.3675 36.1922H43.7289C44.5873 36.1922 45.2831 35.5008 45.2831 34.648C45.2831 33.7952 44.5873 33.1039 43.7289 33.1039H33.3675Z" fill="#8C6D51"/>
<path d="M49.9458 41.3392H33.3675C32.5091 41.3392 31.8133 42.0305 31.8133 42.8833C31.8133 43.7361 32.5091 44.4274 33.3675 44.4274H49.9458C50.8042 44.4274 51.5 43.7361 51.5 42.8833C51.5 42.0305 50.8042 41.3392 49.9458 41.3392Z" fill="#8C6D51"/>
<path d="M8.5 16.1186C8.5 13.8445 10.3556 12.001 12.6446 12.001H45.8012C48.0902 12.001 49.9458 13.8445 49.9458 16.1186V22.2951C49.9458 24.5692 48.0902 26.4127 45.8012 26.4127H12.6446C10.3556 26.4127 8.5 24.5692 8.5 22.2951V16.1186Z" fill="#8C6D51"/>
</svg>
