<svg width="51" height="50" viewBox="0 0 51 50" fill="none" xmlns="http://www.w3.org/2000/svg">
<g clip-path="url(#clip0_533_427)">
<path fill-rule="evenodd" clip-rule="evenodd" d="M25.5 31.251C22.0482 31.251 19.25 28.4528 19.25 25.001C19.25 21.5492 22.0482 18.751 25.5 18.751C28.9518 18.751 31.75 21.5492 31.75 25.001C31.75 28.4528 28.9518 31.251 25.5 31.251Z" stroke="#8C6D51" stroke-width="4" stroke-linecap="round" stroke-linejoin="round"/>
<path d="M4.66797 23.1675C4.66797 21.0008 6.4388 19.2091 8.6263 19.2091C12.3971 19.2091 13.9388 16.5425 12.043 13.2716C10.9596 11.3966 11.6055 8.95914 13.5013 7.8758L17.1055 5.8133C18.7513 4.83414 20.8763 5.41747 21.8555 7.0633L22.0846 7.45914C23.9596 10.73 27.043 10.73 28.9388 7.45914L29.168 7.0633C30.1471 5.41747 32.2721 4.83414 33.918 5.8133L37.5221 7.8758C39.418 8.95914 40.0638 11.3966 38.9805 13.2716C37.0846 16.5425 38.6263 19.2091 42.3971 19.2091C44.5638 19.2091 46.3555 20.98 46.3555 23.1675V26.8341C46.3555 29.0008 44.5846 30.7925 42.3971 30.7925C38.6263 30.7925 37.0846 33.4591 38.9805 36.73C40.0638 38.6258 39.418 41.0425 37.5221 42.1258L33.918 44.1883C32.2721 45.1675 30.1471 44.5841 29.168 42.9383L28.9388 42.5425C27.0638 39.2716 23.9805 39.2716 22.0846 42.5425L21.8555 42.9383C20.8763 44.5841 18.7513 45.1675 17.1055 44.1883L13.5013 42.1258C11.6055 41.0425 10.9596 38.605 12.043 36.73C13.9388 33.4591 12.3971 30.7925 8.6263 30.7925C6.4388 30.7925 4.66797 29.0008 4.66797 26.8341V23.1675Z" stroke="#8C6D51" stroke-width="4" stroke-linecap="round" stroke-linejoin="round"/>
</g>
<defs>
<clipPath id="clip0_533_427">
<rect width="50" height="50" fill="white" transform="translate(0.5 0.000976562)"/>
</clipPath>
</defs>
</svg>
