<svg width="43" height="43" viewBox="0 0 43 43" fill="none" xmlns="http://www.w3.org/2000/svg">
<path fill-rule="evenodd" clip-rule="evenodd" d="M0 21.5011C0 9.62705 9.62582 0.0012293 21.4999 0.0012293C23.0796 -0.00670674 24.6547 0.172281 26.1923 0.53446C20.1067 2.27687 16.1239 8.10498 16.7114 14.4077C17.299 20.7105 22.2905 25.702 28.5932 26.2896C34.896 26.8771 40.7241 22.8942 42.4665 16.8087C42.8287 18.3463 43.0077 19.9214 42.9997 21.5011C42.9997 33.3752 33.3739 43.001 21.4999 43.001C9.62582 43.001 0 33.3752 0 21.5011ZM18.2215 24.7777C12.6439 19.2054 11.8342 10.4476 16.2955 3.94714C7.89851 6.44107 2.4462 14.5356 3.2906 23.2544C4.13499 31.9731 11.0393 38.8709 19.7588 39.7072C28.4784 40.5434 36.5678 35.0835 39.0539 26.6841C32.5576 31.1515 23.799 30.35 18.2215 24.7777Z" fill="#8C6D51"/>
</svg>
