<svg width="61" height="60" viewBox="0 0 61 60" fill="none" xmlns="http://www.w3.org/2000/svg">
<path fill-rule="evenodd" clip-rule="evenodd" d="M30.5 46.251C21.5254 46.251 14.25 38.9756 14.25 30.001C14.25 21.0263 21.5254 13.751 30.5 13.751C39.4746 13.751 46.75 21.0263 46.75 30.001C46.75 38.9756 39.4746 46.251 30.5 46.251Z" stroke="#E6E4D8" stroke-width="3" stroke-linecap="round" stroke-linejoin="round"/>
<path d="M31.4951 54.6992L32.9934 54.6272C32.9921 54.6009 32.9902 54.5746 32.9875 54.5484L31.4951 54.6992ZM31.5 54.8008H33C33 54.7768 32.9994 54.7527 32.9983 54.7287L31.5 54.8008ZM29.5 54.8008L28 54.8005V54.8008H29.5ZM12.2676 46.8193L11.2069 45.7587H11.2069L12.2676 46.8193ZM13.6816 46.8193L14.7423 45.7587L14.7423 45.7587L13.6816 46.8193ZM13.6816 48.2334L12.621 47.1727H12.621L13.6816 48.2334ZM13.3574 48.5576L14.4181 49.6183H14.4181L13.3574 48.5576ZM11.9434 48.5576L10.8827 49.6183L10.8827 49.6183L11.9434 48.5576ZM11.9434 47.1436L13.004 48.2042H13.004L11.9434 47.1436ZM48.6562 46.75L49.666 45.6407C49.6459 45.6224 49.6253 45.6047 49.6042 45.5875L48.6562 46.75ZM48.7324 46.8193L49.7931 45.7587C49.7765 45.7421 49.7595 45.7259 49.7421 45.7101L48.7324 46.8193ZM49.0566 47.1436L50.1659 46.1338C50.1501 46.1165 50.1339 46.0995 50.1173 46.0829L49.0566 47.1436ZM49.126 47.2197L50.2884 46.2717C50.2713 46.2507 50.2535 46.2301 50.2352 46.21L49.126 47.2197ZM47.7188 48.627L46.709 49.7362C46.7291 49.7545 46.7497 49.7722 46.7708 49.7894L47.7188 48.627ZM47.6426 48.5576L46.5819 49.6183C46.5985 49.6349 46.6155 49.6511 46.6329 49.6669L47.6426 48.5576ZM47.3184 48.2334L46.2091 49.2431C46.2249 49.2605 46.2411 49.2775 46.2577 49.2941L47.3184 48.2334ZM47.249 48.1572L46.0866 49.1052C46.1037 49.1263 46.1215 49.1469 46.1398 49.1669L47.249 48.1572ZM5.80176 29.0059L5.95255 27.5135C5.92635 27.5108 5.90009 27.5089 5.87379 27.5076L5.80176 29.0059ZM5.80176 30.9961L5.87379 32.4944C5.90009 32.4931 5.92635 32.4911 5.95255 32.4885L5.80176 30.9961ZM5.7002 31.001V32.501C5.72422 32.501 5.74823 32.5004 5.77223 32.4992L5.7002 31.001ZM5.7002 29.001L5.77223 27.5027C5.74823 27.5016 5.72422 27.501 5.7002 27.501V29.001ZM55.2998 31.001L55.2995 32.501H55.2998V31.001ZM55.2998 29.001V27.501H55.2995L55.2998 29.001ZM47.6426 11.4443L48.7032 12.505V12.505L47.6426 11.4443ZM49.0566 11.4443L50.1173 10.3837L50.1173 10.3837L49.0566 11.4443ZM49.0566 12.8584L50.1173 13.9191V13.9191L49.0566 12.8584ZM48.7324 13.1826L47.6718 12.122V12.122L48.7324 13.1826ZM47.3184 13.1826L46.2577 14.2433L46.2577 14.2433L47.3184 13.1826ZM47.3184 11.7686L46.2577 10.7079V10.7079L47.3184 11.7686ZM13.2812 11.375L14.291 10.2657C14.2709 10.2474 14.2503 10.2297 14.2292 10.2125L13.2812 11.375ZM13.3574 11.4443L14.4181 10.3837C14.4015 10.3671 14.3845 10.3509 14.3671 10.3351L13.3574 11.4443ZM13.6816 11.7686L14.7909 10.7588C14.7751 10.7415 14.7589 10.7245 14.7423 10.7079L13.6816 11.7686ZM13.751 11.8447L14.9134 10.8967C14.8963 10.8757 14.8785 10.8551 14.8602 10.835L13.751 11.8447ZM12.3438 13.252L11.334 14.3612C11.3541 14.3795 11.3747 14.3972 11.3958 14.4144L12.3438 13.252ZM12.2676 13.1826L11.2069 14.2433C11.2235 14.2599 11.2405 14.2761 11.2579 14.2919L12.2676 13.1826ZM11.9434 12.8584L10.8341 13.8681C10.8499 13.8855 10.8661 13.9025 10.8827 13.9191L11.9434 12.8584ZM11.874 12.7822L10.7116 13.7302C10.7287 13.7513 10.7465 13.7719 10.7648 13.7919L11.874 12.7822ZM31.5 5.20117L32.9983 5.2732C32.9994 5.24921 33 5.22519 33 5.20117H31.5ZM31.4951 5.30273L32.9875 5.45353C32.9902 5.42733 32.9921 5.40107 32.9934 5.37477L31.4951 5.30273ZM29.5 5.20117H28V5.20146L29.5 5.20117ZM30.5 53.8008V55.3008C30.2402 55.3008 30.0284 55.1039 30.0027 54.85L31.4951 54.6992L32.9875 54.5484C32.8599 53.2855 31.7957 52.3008 30.5 52.3008V53.8008ZM31.4951 54.6992L29.9968 54.7713L30.0017 54.8728L31.5 54.8008L32.9983 54.7287L32.9934 54.6272L31.4951 54.6992ZM31.5 54.8008H30V55.001H31.5H33V54.8008H31.5ZM31.5 55.001H30C30 54.7248 30.2239 54.501 30.5 54.501V56.001V57.501C31.8807 57.501 33 56.3817 33 55.001H31.5ZM30.5 56.001V54.501C30.7761 54.501 31 54.7248 31 55.001H29.5H28C28 56.3817 29.1193 57.501 30.5 57.501V56.001ZM29.5 55.001H31V54.8008H29.5H28V55.001H29.5ZM29.5 54.8008L31 54.8011C30.9999 55.0768 30.7765 55.3008 30.5 55.3008V53.8008V52.3008C29.1191 52.3008 28.0003 53.4204 28 54.8005L29.5 54.8008ZM12.2676 46.8193L13.3282 47.88C13.133 48.0753 12.8162 48.0753 12.621 47.88L13.6816 46.8193L14.7423 45.7587C13.766 44.7824 12.1832 44.7824 11.2069 45.7587L12.2676 46.8193ZM13.6816 46.8193L12.621 47.88C12.4257 47.6847 12.4257 47.368 12.621 47.1727L13.6816 48.2334L14.7423 49.2941C15.7186 48.3177 15.7186 46.735 14.7423 45.7587L13.6816 46.8193ZM13.6816 48.2334L12.621 47.1727L12.2968 47.497L13.3574 48.5576L14.4181 49.6183L14.7423 49.2941L13.6816 48.2334ZM13.3574 48.5576L12.2968 47.497C12.492 47.3017 12.8088 47.3017 13.004 47.497L11.9434 48.5576L10.8827 49.6183C11.859 50.5946 13.4418 50.5946 14.4181 49.6183L13.3574 48.5576ZM11.9434 48.5576L13.004 47.497C13.1993 47.6922 13.1993 48.0089 13.004 48.2042L11.9434 47.1436L10.8827 46.0829C9.90638 47.0592 9.90639 48.642 10.8827 49.6183L11.9434 48.5576ZM11.9434 47.1436L13.004 48.2042L13.3282 47.88L12.2676 46.8193L11.2069 45.7587L10.8827 46.0829L11.9434 47.1436ZM47.3184 46.8193L48.379 47.88C48.1966 48.0624 47.9073 48.0748 47.7083 47.9125L48.6562 46.75L49.6042 45.5875C48.6196 44.7846 47.1723 44.8441 46.2577 45.7587L47.3184 46.8193ZM48.6562 46.75L47.6465 47.8593L47.7227 47.9286L48.7324 46.8193L49.7421 45.7101L49.666 45.6407L48.6562 46.75ZM48.7324 46.8193L47.6718 47.88L47.996 48.2042L49.0566 47.1436L50.1173 46.0829L49.7931 45.7587L48.7324 46.8193ZM49.0566 47.1436L47.9474 48.1533L48.0167 48.2294L49.126 47.2197L50.2352 46.21L50.1659 46.1338L49.0566 47.1436ZM49.126 47.2197L47.9635 48.1677C47.8012 47.9686 47.8136 47.6794 47.996 47.497L49.0566 48.5576L50.1173 49.6183C51.0319 48.7037 51.0914 47.2564 50.2884 46.2717L49.126 47.2197ZM49.0566 48.5576L47.996 47.497C48.1784 47.3146 48.4677 47.3021 48.6667 47.4645L47.7188 48.627L46.7708 49.7894C47.7554 50.5924 49.2027 50.5329 50.1173 49.6183L49.0566 48.5576ZM47.7188 48.627L48.7285 47.5177L48.6523 47.4483L47.6426 48.5576L46.6329 49.6669L46.709 49.7362L47.7188 48.627ZM47.6426 48.5576L48.7032 47.497L48.379 47.1727L47.3184 48.2334L46.2577 49.2941L46.5819 49.6183L47.6426 48.5576ZM47.3184 48.2334L48.4276 47.2237L48.3583 47.1475L47.249 48.1572L46.1398 49.1669L46.2091 49.2431L47.3184 48.2334ZM47.249 48.1572L48.4115 47.2092C48.5738 47.4083 48.5614 47.6976 48.379 47.88L47.3184 46.8193L46.2577 45.7587C45.3431 46.6733 45.2836 48.1206 46.0866 49.1052L47.249 48.1572ZM5.80176 29.0059L5.65097 30.4983C5.39704 30.4726 5.2002 30.2608 5.2002 30.001H6.7002H8.2002C8.2002 28.7053 7.21548 27.6411 5.95255 27.5135L5.80176 29.0059ZM6.7002 30.001H5.2002C5.2002 29.7412 5.39704 29.5293 5.65097 29.5037L5.80176 30.9961L5.95255 32.4885C7.21548 32.3609 8.2002 31.2967 8.2002 30.001H6.7002ZM5.80176 30.9961L5.72973 29.4978L5.62816 29.5027L5.7002 31.001L5.77223 32.4992L5.87379 32.4944L5.80176 30.9961ZM5.7002 31.001V29.501H5.5V31.001V32.501H5.7002V31.001ZM5.5 31.001V29.501C5.77614 29.501 6 29.7248 6 30.001H4.5H3C3 31.3817 4.11929 32.501 5.5 32.501V31.001ZM4.5 30.001H6C6 30.2771 5.77614 30.501 5.5 30.501V29.001V27.501C4.11929 27.501 3 28.6203 3 30.001H4.5ZM5.5 29.001V30.501H5.7002V29.001V27.501H5.5V29.001ZM5.7002 29.001L5.62816 30.4992L5.72973 30.5041L5.80176 29.0059L5.87379 27.5076L5.77223 27.5027L5.7002 29.001ZM55.5 29.001V30.501C55.2239 30.501 55 30.2771 55 30.001H56.5H58C58 28.6203 56.8807 27.501 55.5 27.501V29.001ZM56.5 30.001H55C55 29.7248 55.2239 29.501 55.5 29.501V31.001V32.501C56.8807 32.501 58 31.3817 58 30.001H56.5ZM55.5 31.001V29.501H55.2998V31.001V32.501H55.5V31.001ZM55.2998 31.001L55.3001 29.501C55.5758 29.501 55.7998 29.7245 55.7998 30.001H54.2998H52.7998C52.7998 31.3819 53.9194 32.5007 55.2995 32.501L55.2998 31.001ZM54.2998 30.001H55.7998C55.7998 30.2775 55.5758 30.5009 55.3001 30.501L55.2998 29.001L55.2995 27.501C53.9194 27.5012 52.7998 28.62 52.7998 30.001H54.2998ZM55.2998 29.001V30.501H55.5V29.001V27.501H55.2998V29.001ZM47.6426 11.4443L48.7032 12.505C48.508 12.7003 48.1912 12.7003 47.996 12.505L49.0566 11.4443L50.1173 10.3837C49.141 9.40737 47.5582 9.40736 46.5819 10.3837L47.6426 11.4443ZM49.0566 11.4443L47.996 12.505C47.8007 12.3097 47.8007 11.993 47.996 11.7977L49.0566 12.8584L50.1173 13.9191C51.0936 12.9427 51.0936 11.36 50.1173 10.3837L49.0566 11.4443ZM49.0566 12.8584L47.996 11.7977L47.6718 12.122L48.7324 13.1826L49.7931 14.2433L50.1173 13.9191L49.0566 12.8584ZM48.7324 13.1826L47.6718 12.122C47.867 11.9267 48.1838 11.9267 48.379 12.122L47.3184 13.1826L46.2577 14.2433C47.234 15.2196 48.8168 15.2196 49.7931 14.2433L48.7324 13.1826ZM47.3184 13.1826L48.379 12.122C48.5743 12.3172 48.5743 12.634 48.379 12.8292L47.3184 11.7686L46.2577 10.7079C45.2814 11.6842 45.2814 13.267 46.2577 14.2433L47.3184 13.1826ZM47.3184 11.7686L48.379 12.8292L48.7032 12.505L47.6426 11.4443L46.5819 10.3837L46.2577 10.7079L47.3184 11.7686ZM11.9434 11.4443L13.004 12.505C12.8216 12.6874 12.5323 12.6998 12.3333 12.5375L13.2812 11.375L14.2292 10.2125C13.2446 9.40958 11.7973 9.46908 10.8827 10.3837L11.9434 11.4443ZM13.2812 11.375L12.2715 12.4843L12.3477 12.5536L13.3574 11.4443L14.3671 10.3351L14.291 10.2657L13.2812 11.375ZM13.3574 11.4443L12.2968 12.505L12.621 12.8292L13.6816 11.7686L14.7423 10.7079L14.4181 10.3837L13.3574 11.4443ZM13.6816 11.7686L12.5724 12.7783L12.6417 12.8544L13.751 11.8447L14.8602 10.835L14.7909 10.7588L13.6816 11.7686ZM13.751 11.8447L12.5885 12.7927C12.4262 12.5936 12.4386 12.3044 12.621 12.122L13.6816 13.1826L14.7423 14.2433C15.6569 13.3287 15.7164 11.8814 14.9134 10.8967L13.751 11.8447ZM13.6816 13.1826L12.621 12.122C12.8034 11.9396 13.0927 11.9271 13.2917 12.0895L12.3438 13.252L11.3958 14.4144C12.3804 15.2174 13.8277 15.1579 14.7423 14.2433L13.6816 13.1826ZM12.3438 13.252L13.3535 12.1427L13.2773 12.0734L12.2676 13.1826L11.2579 14.2919L11.334 14.3612L12.3438 13.252ZM12.2676 13.1826L13.3282 12.122L13.004 11.7977L11.9434 12.8584L10.8827 13.9191L11.2069 14.2433L12.2676 13.1826ZM11.9434 12.8584L13.0526 11.8487L12.9833 11.7725L11.874 12.7822L10.7648 13.7919L10.8341 13.8681L11.9434 12.8584ZM11.874 12.7822L13.0365 11.8342C13.1988 12.0333 13.1864 12.3226 13.004 12.505L11.9434 11.4443L10.8827 10.3837C9.9681 11.2983 9.90861 12.7456 10.7116 13.7302L11.874 12.7822ZM30.5 4.00098V5.50098C30.2239 5.50098 30 5.27712 30 5.00098H31.5H33C33 3.62026 31.8807 2.50098 30.5 2.50098V4.00098ZM31.5 5.00098H30V5.20117H31.5H33V5.00098H31.5ZM31.5 5.20117L30.0017 5.12914L29.9968 5.2307L31.4951 5.30273L32.9934 5.37477L32.9983 5.2732L31.5 5.20117ZM31.4951 5.30273L30.0027 5.15194C30.0284 4.89802 30.2402 4.70117 30.5 4.70117V6.20117V7.70117C31.7957 7.70117 32.8599 6.71645 32.9875 5.45353L31.4951 5.30273ZM30.5 6.20117V4.70117C30.7765 4.70117 30.9999 4.92516 31 5.20088L29.5 5.20117L28 5.20146C28.0003 6.58157 29.1191 7.70117 30.5 7.70117V6.20117ZM29.5 5.20117H31V5.00098H29.5H28V5.20117H29.5ZM29.5 5.00098H31C31 5.27712 30.7761 5.50098 30.5 5.50098V4.00098V2.50098C29.1193 2.50098 28 3.62026 28 5.00098H29.5Z" fill="#E6E4D8"/>
</svg>
